<?xml version="1.0" standalone="no"?>
<!DOCTYPE svg PUBLIC "-//W3C//DTD SVG 20010904//EN"
 "http://www.w3.org/TR/2001/REC-SVG-20010904/DTD/svg10.dtd">
<svg version="1.0" xmlns="http://www.w3.org/2000/svg"
 width="1100.000000pt" height="500.000000pt" viewBox="0 0 1100.000000 500.000000"
 preserveAspectRatio="xMidYMid meet">

<g transform="translate(0.000000,500.000000) scale(0.100000,-0.100000)"
fill="#000000" stroke="none">
<path d="M2280 4365 l0 -345 35 0 35 0 0 345 0 345 -35 0 -35 0 0 -345z"/>
<path d="M8650 4365 l0 -345 30 0 30 0 0 345 0 345 -30 0 -30 0 0 -345z"/>
<path d="M2250 2799 c-45 -18 -90 -60 -113 -102 -20 -38 -22 -56 -22 -182 0
-135 1 -142 28 -187 48 -83 145 -123 237 -98 57 15 124 80 138 134 14 47 9 56
-28 56 -23 0 -32 -8 -51 -47 -53 -107 -180 -106 -236 0 -13 24 -17 58 -17 142
0 123 10 153 66 200 28 23 39 27 80 23 56 -6 91 -33 110 -85 11 -30 16 -33 51
-33 38 0 39 1 32 28 -23 97 -91 155 -188 159 -34 2 -73 -2 -87 -8z"/>
<path d="M7005 2791 c-97 -44 -141 -142 -133 -300 6 -113 27 -170 81 -218 65
-57 142 -67 223 -29 56 26 94 70 115 131 19 59 17 228 -4 291 -40 118 -171
176 -282 125z m145 -70 c53 -28 72 -69 78 -170 3 -53 0 -109 -7 -138 -35 -143
-205 -162 -256 -28 -24 61 -18 248 8 289 41 62 113 81 177 47z"/>
<path d="M8595 2791 c-49 -22 -98 -76 -116 -128 -9 -23 -14 -82 -14 -153 0
-103 3 -120 25 -164 30 -61 79 -101 143 -118 92 -24 190 24 237 118 22 44 25
61 25 164 0 71 -5 130 -14 153 -29 85 -114 147 -201 147 -25 0 -63 -9 -85 -19z
m152 -71 c56 -34 68 -70 68 -205 0 -108 -2 -124 -23 -157 -16 -25 -37 -42 -67
-54 -42 -16 -48 -16 -90 0 -30 12 -51 29 -67 54 -21 33 -23 49 -23 157 0 97 4
126 18 153 23 42 72 72 117 72 19 0 49 -9 67 -20z"/>
<path d="M3771 2527 c-50 -149 -91 -278 -91 -285 0 -7 14 -12 35 -12 34 0 35
0 57 75 l23 75 109 -2 109 -3 25 -72 c23 -72 24 -73 58 -73 20 0 34 5 34 12 0
7 -41 136 -91 285 l-91 273 -43 0 -43 0 -91 -273z m215 -59 c5 -16 -3 -18 -81
-18 -85 0 -86 0 -80 23 23 73 67 214 72 227 4 12 45 -95 89 -232z"/>
<path d="M5302 2518 l3 -283 35 0 35 0 5 213 5 213 107 -216 108 -215 45 0 45
0 0 285 0 285 -35 0 -35 0 -1 -222 0 -223 -112 223 -112 222 -48 0 -47 0 2
-282z"/>
<path d="M490 2475 l0 -35 230 0 230 0 0 35 0 35 -230 0 -230 0 0 -35z"/>
<path d="M10040 2475 l0 -35 230 0 230 0 0 35 0 35 -230 0 -230 0 0 -35z"/>
<path d="M2280 626 l0 -346 35 0 35 0 -2 342 -3 343 -32 3 -33 3 0 -345z"/>
<path d="M8650 625 l0 -345 30 0 30 0 0 345 0 345 -30 0 -30 0 0 -345z"/>
</g>
</svg>
